<?xml version="1.0" encoding="UTF-8" standalone="no"?>
<svg width="64px" height="135px" viewBox="0 0 64 135" version="1.1" xmlns="http://www.w3.org/2000/svg" xmlns:xlink="http://www.w3.org/1999/xlink">
    <!-- Generator: Sketch 3.6.1 (26313) - http://www.bohemiancoding.com/sketch -->
    <title>Facebook</title>
    <desc>Created with Sketch.</desc>
    <defs></defs>
    <g id="Page-1" stroke="none" stroke-width="1" fill="none" fill-rule="evenodd">
        <g id="Font-Awesome-Icon-Pack" transform="translate(-166.000000, -2667.000000)" fill="#000000">
            <g id="facebook25" transform="translate(165.843750, 2666.500000)">
                <path d="M42.348,44.861 L42.348,33.292 C42.348,31.555 42.428,30.21 42.591,29.26 C42.753,28.308 43.121,27.372 43.692,26.448 C44.262,25.525 45.186,24.887 46.462,24.534 C47.739,24.18 49.437,24.004 51.556,24.004 L63.124,24.004 L63.124,0.866 L44.63,0.866 C33.928,0.866 26.243,3.405 21.572,8.483 C16.901,13.562 14.566,21.043 14.566,30.929 L14.566,44.861 L0.714,44.861 L0.714,68 L14.565,68 L14.565,135.134 L42.348,135.134 L42.348,68 L60.842,68 L63.286,44.861 L42.348,44.861 L42.348,44.861 Z" id="Shape"></path>
            </g>
        </g>
    </g>
</svg>
