<?xml version="1.0" encoding="UTF-8" standalone="no"?>
<svg width="76px" height="48px" viewBox="0 0 76 48" version="1.1" xmlns="http://www.w3.org/2000/svg" xmlns:xlink="http://www.w3.org/1999/xlink">
    <!-- Generator: Sketch 3.6.1 (26313) - http://www.bohemiancoding.com/sketch -->
    <title>Google Plus</title>
    <desc>Created with Sketch.</desc>
    <defs></defs>
    <g id="Page-1" stroke="none" stroke-width="1" fill="none" fill-rule="evenodd">
        <g id="76---iPad-(@1x)" transform="translate(0.000000, -14.000000)" fill="#000000">
            <g id="Group" transform="translate(0.000000, 14.000000)">
                <path d="M37.110491,28.8751782 C35.1960249,34.3774243 30.0303101,38.3195346 23.9582107,38.3195346 C16.2561447,38.3195346 10.0123866,31.976961 10.0123866,24.153 C10.0123866,16.3290389 16.2561447,9.98646533 23.9582107,9.98646533 C27.5064568,9.98646533 30.7452018,11.332569 33.2065573,13.549483 L40.2688206,6.48101146 C35.9918816,2.50292914 30.2590983,0.0698910691 23.9582107,0.0698910691 C10.7264563,0.0698910691 7.10542736e-15,10.7994114 7.10542736e-15,24.0349455 C7.10542736e-15,37.2704796 10.7264563,48 23.9582107,48 C37.1899651,48 47.9164215,37.2704796 47.9164215,24.0349455 C47.9164215,22.3768136 47.7480721,20.7580129 47.427538,19.1947129 L40.6832821,19.1947129 L24.0774058,19.1947129 L24.0774058,28.8751782 L37.110491,28.8751782 Z" id="Combined-Shape"></path>
                <path d="M67.4644143,19.6669307 L67.4644143,11.4031188 L61.5046604,11.4031188 L61.5046604,19.6669307 L52.9226147,19.6669307 L52.9226147,25.5696535 L61.5046604,25.5696535 L61.5046604,34.0695743 L67.4644143,34.0695743 L67.4644143,25.5696535 L75.8080698,25.5696535 L75.8080698,19.6669307 L67.4644143,19.6669307 Z" id="Combined-Shape"></path>
            </g>
        </g>
    </g>
</svg>
