<?xml version="1.0" encoding="UTF-8" standalone="no"?>
<svg width="116px" height="115px" viewBox="0 0 116 115" version="1.1" xmlns="http://www.w3.org/2000/svg" xmlns:xlink="http://www.w3.org/1999/xlink">
    <!-- Generator: Sketch 3.6.1 (26313) - http://www.bohemiancoding.com/sketch -->
    <title>Phone</title>
    <desc>Created with Sketch.</desc>
    <defs></defs>
    <g id="Page-1" stroke="none" stroke-width="1" fill="none" fill-rule="evenodd">
        <g id="Font-Awesome-Icon-Pack" transform="translate(-1256.000000, -1973.000000)" fill="#000000">
            <g id="telephone66" transform="translate(1256.843750, 1973.500000)">
                <path d="M114.111,88.527 C113.786,87.549 111.722,86.109 107.919,84.209 C106.889,83.611 105.421,82.797 103.522,81.765 C101.62,80.733 99.895,79.782 98.348,78.912 C96.799,78.044 95.346,77.201 93.989,76.388 C93.772,76.225 93.093,75.75 91.952,74.962 C90.811,74.175 89.848,73.591 89.059,73.21 C88.272,72.83 87.498,72.64 86.737,72.64 C85.651,72.64 84.294,73.414 82.665,74.962 C81.036,76.51 79.542,78.193 78.185,80.014 C76.827,81.834 75.388,83.517 73.868,85.065 C72.347,86.614 71.097,87.387 70.12,87.387 C69.631,87.387 69.019,87.251 68.286,86.981 C67.554,86.71 66.997,86.477 66.615,86.289 C66.236,86.098 65.585,85.719 64.661,85.147 C63.736,84.577 63.221,84.264 63.113,84.209 C55.672,80.081 49.29,75.355 43.967,70.033 C38.645,64.71 33.919,58.328 29.791,50.887 C29.737,50.778 29.424,50.262 28.854,49.339 C28.283,48.415 27.903,47.764 27.713,47.383 C27.523,47.003 27.292,46.446 27.021,45.713 C26.75,44.98 26.614,44.369 26.614,43.88 C26.614,42.903 27.388,41.653 28.936,40.132 C30.484,38.612 32.168,37.172 33.987,35.815 C35.807,34.458 37.49,32.964 39.038,31.335 C40.586,29.705 41.36,28.348 41.36,27.262 C41.36,26.502 41.17,25.727 40.79,24.94 C40.41,24.151 39.826,23.188 39.038,22.047 C38.25,20.906 37.775,20.228 37.612,20.01 C36.798,18.653 35.957,17.2 35.087,15.652 C34.217,14.104 33.267,12.379 32.235,10.478 C31.203,8.578 30.389,7.111 29.791,6.079 C27.89,2.278 26.451,0.213 25.473,-0.112 C25.093,-0.275 24.522,-0.357 23.762,-0.357 C22.295,-0.357 20.381,-0.086 18.018,0.458 C15.655,1.001 13.795,1.571 12.437,2.169 C9.721,3.309 6.843,6.622 3.801,12.107 C1.031,17.212 -0.354,22.264 -0.354,27.261 C-0.354,28.726 -0.259,30.152 -0.069,31.538 C0.121,32.923 0.461,34.485 0.95,36.223 C1.439,37.961 1.833,39.252 2.131,40.093 C2.429,40.934 2.986,42.441 3.801,44.614 C4.615,46.787 5.104,48.117 5.267,48.606 C7.168,53.929 9.422,58.681 12.029,62.864 C16.318,69.816 22.171,77 29.585,84.414 C36.999,91.828 44.182,97.681 51.135,101.972 C55.317,104.578 60.071,106.833 65.393,108.735 C65.882,108.897 67.213,109.386 69.385,110.202 C71.557,111.016 73.065,111.573 73.906,111.872 C74.747,112.171 76.038,112.565 77.775,113.054 C79.515,113.543 81.076,113.883 82.461,114.074 C83.846,114.262 85.272,114.359 86.738,114.359 C91.734,114.359 96.786,112.973 101.892,110.204 C107.376,107.162 110.689,104.283 111.83,101.566 C112.429,100.21 112.998,98.349 113.541,95.986 C114.085,93.624 114.356,91.71 114.356,90.243 C114.357,89.48 114.275,88.91 114.111,88.527 L114.111,88.527 Z" id="Shape"></path>
            </g>
        </g>
    </g>
</svg>
