<?xml version="1.0" encoding="UTF-8" standalone="no"?>
<svg width="126px" height="127px" viewBox="0 0 126 127" version="1.1" xmlns="http://www.w3.org/2000/svg" xmlns:xlink="http://www.w3.org/1999/xlink">
    <!-- Generator: Sketch 3.6.1 (26313) - http://www.bohemiancoding.com/sketch -->
    <title>Pinterest</title>
    <desc>Created with Sketch.</desc>
    <defs></defs>
    <g id="Page-1" stroke="none" stroke-width="1" fill="none" fill-rule="evenodd">
        <g id="Font-Awesome-Icon-Pack" transform="translate(-2553.000000, -1439.000000)" fill="#000000">
            <g id="pinterest13" transform="translate(2552.843750, 1439.500000)">
                <path d="M117.184,31.592 C111.589,22.006 103.999,14.416 94.413,8.821 C84.826,3.226 74.358,0.429 63.005,0.429 C51.653,0.429 41.183,3.226 31.597,8.821 C22.01,14.415 14.42,22.005 8.825,31.592 C3.229,41.179 0.432,51.648 0.432,63 C0.432,75.655 3.881,87.145 10.779,97.463 C17.677,107.784 26.72,115.415 37.909,120.358 C37.692,114.546 38.045,109.74 38.968,105.938 L47.034,71.881 C45.676,69.219 44.997,65.907 44.997,61.941 C44.997,57.325 46.164,53.469 48.5,50.372 C50.836,47.276 53.687,45.728 57.055,45.728 C59.77,45.728 61.861,46.624 63.328,48.416 C64.795,50.209 65.527,52.463 65.527,55.179 C65.527,56.862 65.214,58.913 64.589,61.33 C63.964,63.747 63.15,66.544 62.145,69.722 C61.14,72.899 60.42,75.44 59.986,77.339 C59.226,80.652 59.85,83.49 61.86,85.854 C63.869,88.216 66.532,89.399 69.845,89.399 C75.657,89.399 80.422,86.167 84.144,79.704 C87.865,73.239 89.724,65.391 89.724,56.158 C89.724,49.042 87.429,43.257 82.839,38.804 C78.249,34.35 71.853,32.122 63.651,32.122 C54.473,32.122 47.045,35.069 41.369,40.962 C35.693,46.856 32.855,53.904 32.855,62.105 C32.855,66.994 34.24,71.095 37.01,74.408 C37.933,75.494 38.232,76.662 37.906,77.912 C37.797,78.238 37.58,79.052 37.254,80.355 C36.929,81.658 36.711,82.501 36.603,82.88 C36.169,84.618 35.136,85.161 33.507,84.51 C29.325,82.773 26.147,79.757 23.975,75.466 C21.802,71.176 20.716,66.204 20.716,60.557 C20.716,56.918 21.3,53.279 22.468,49.64 C23.635,46 25.455,42.484 27.926,39.089 C30.398,35.693 33.358,32.692 36.807,30.086 C40.255,27.479 44.451,25.388 49.394,23.813 C54.337,22.238 59.659,21.45 65.363,21.45 C73.076,21.45 80,23.161 86.137,26.583 C92.276,30.005 96.96,34.431 100.192,39.863 C103.424,45.295 105.04,51.107 105.04,57.299 C105.04,65.446 103.628,72.778 100.804,79.297 C97.98,85.814 93.988,90.933 88.827,94.653 C83.666,98.375 77.801,100.235 71.227,100.235 C67.915,100.235 64.819,99.461 61.939,97.913 C59.061,96.365 57.078,94.532 55.992,92.414 C53.548,102.026 52.081,107.757 51.592,109.604 C50.56,113.459 48.442,117.914 45.237,122.964 C51.049,124.702 56.969,125.57 62.998,125.57 C74.35,125.57 84.82,122.773 94.406,117.178 C103.992,111.584 111.582,103.993 117.177,94.407 C122.771,84.82 125.568,74.35 125.568,62.999 C125.57,51.648 122.777,41.178 117.184,31.592 L117.184,31.592 Z" id="Shape"></path>
            </g>
        </g>
    </g>
</svg>
