<?xml version="1.0" encoding="UTF-8" standalone="no"?>
<svg width="37px" height="38px" viewBox="0 0 37 38" version="1.1" xmlns="http://www.w3.org/2000/svg" xmlns:xlink="http://www.w3.org/1999/xlink">
    <!-- Generator: Sketch 3.6.1 (26313) - http://www.bohemiancoding.com/sketch -->
    <title>lnr-clock</title>
    <desc>Created with Sketch.</desc>
    <defs></defs>
    <g id="Pages" stroke="none" stroke-width="1" fill="none" fill-rule="evenodd">
        <g id="Desktop-/-Contact-Page" transform="translate(-803.000000, -1299.000000)" fill="#E88495">
            <g id="Contact-Info-/-Form" transform="translate(341.000000, 1063.000000)">
                <g id="Contact-Info" transform="translate(462.000000, 41.000000)">
                    <g id="Hours" transform="translate(0.000000, 194.000000)">
                        <g id="lnr-clock" transform="translate(0.000000, 1.000000)">
                            <g id="Group">
                                <path d="M31.0857143,31.5961905 C34.3790476,28.2019048 36.1904762,23.7409524 36.1904762,19 C36.1904762,14.4857143 34.5485714,10.2228571 31.5466667,6.8952381 L32.8571429,5.5847619 L34.0895238,6.8152381 C34.2761905,7.00190476 34.52,7.09333333 34.7619048,7.09333333 C35.0038095,7.09333333 35.2495238,7 35.4342857,6.8152381 C35.8057143,6.44380952 35.8057143,5.84 35.4342857,5.46857143 L31.6247619,1.65904762 C31.2533333,1.28761905 30.6495238,1.28761905 30.2780952,1.65904762 C29.9066667,2.03047619 29.9066667,2.63428571 30.2780952,3.00571429 L31.5104762,4.23619048 L30.2,5.54666667 C26.872381,2.5447619 22.6095238,0.902857143 18.0952381,0.902857143 C13.5809524,0.902857143 9.31809524,2.5447619 5.99047619,5.54666667 L4.68,4.23619048 L5.91047619,3.00571429 C6.28190476,2.63428571 6.28190476,2.03047619 5.91047619,1.65904762 C5.53904762,1.28761905 4.9352381,1.28761905 4.56380952,1.65904762 L0.754285714,5.46857143 C0.382857143,5.84 0.382857143,6.44380952 0.754285714,6.8152381 C0.940952381,7.00190476 1.1847619,7.09333333 1.42857143,7.09333333 C1.67238095,7.09333333 1.91619048,7 2.10285714,6.8152381 L3.33333333,5.5847619 L4.64380952,6.8952381 C1.64190476,10.2228571 0,14.4857143 0,19 C0,23.7409524 1.81142857,28.2019048 5.1047619,31.5961905 L1.23047619,35.4704762 C0.859047619,35.8419048 0.859047619,36.4457143 1.23047619,36.8171429 C1.41714286,37.0038095 1.66095238,37.0971429 1.9047619,37.0971429 C2.14857143,37.0971429 2.39238095,37.0038095 2.57904762,36.8171429 L6.50285714,32.8952381 C9.75047619,35.6152381 13.8095238,37.0971429 18.0971429,37.0971429 C22.3847619,37.0971429 26.4438095,35.6152381 29.6914286,32.8952381 L33.6133333,36.8171429 C33.8,37.0038095 34.0438095,37.0971429 34.287619,37.0971429 C34.5314286,37.0971429 34.7752381,37.0038095 34.96,36.8171429 C35.3314286,36.4457143 35.3314286,35.8419048 34.96,35.4704762 L31.0857143,31.5961905 L31.0857143,31.5961905 Z M1.9047619,19 C1.9047619,10.072381 9.16761905,2.80952381 18.0952381,2.80952381 C27.0228571,2.80952381 34.2857143,10.072381 34.2857143,19 C34.2857143,27.927619 27.0228571,35.1904762 18.0952381,35.1904762 C9.16761905,35.1904762 1.9047619,27.927619 1.9047619,19 L1.9047619,19 Z" id="Shape"></path>
                                <path d="M28.8171429,12.8095238 C28.5542857,12.3542857 27.9714286,12.1980952 27.5161905,12.4609524 L18.1447619,17.872381 L10.84,12.7580952 C10.4095238,12.4571429 9.8152381,12.5619048 9.51428571,12.992381 C9.21333333,13.4228571 9.31809524,14.0171429 9.74857143,14.3180952 L17.5504762,19.7809524 C17.552381,19.7828571 17.5542857,19.7828571 17.5542857,19.7847619 C17.5714286,19.7961905 17.5885714,19.807619 17.6057143,19.8171429 C17.6095238,19.8190476 17.6133333,19.8228571 17.6171429,19.8247619 C17.6342857,19.8342857 17.6514286,19.8438095 17.6685714,19.8533333 C17.672381,19.8552381 17.6761905,19.8571429 17.68,19.8590476 C17.6990476,19.8685714 17.7180952,19.8761905 17.7390476,19.8857143 C17.7504762,19.8914286 17.7638095,19.8952381 17.7752381,19.8990476 C17.7828571,19.9009524 17.7904762,19.9047619 17.8,19.9085714 C17.8133333,19.912381 17.8266667,19.9161905 17.84,19.92 C17.847619,19.9219048 17.8552381,19.9238095 17.8628571,19.9257143 C17.8761905,19.9295238 17.8895238,19.9314286 17.9047619,19.9352381 C17.912381,19.9371429 17.92,19.9390476 17.927619,19.9390476 C17.9409524,19.9409524 17.9542857,19.9428571 17.967619,19.9447619 C17.9771429,19.9466667 17.9866667,19.9466667 17.9961905,19.9485714 C18.007619,19.9504762 18.0190476,19.9504762 18.0304762,19.952381 C18.047619,19.9542857 18.0647619,19.9542857 18.0819048,19.9542857 L18.0933333,19.9542857 L18.0933333,19.9542857 L18.0952381,19.9542857 C18.1314286,19.9542857 18.1657143,19.952381 18.2019048,19.9485714 L18.207619,19.9485714 C18.2419048,19.9447619 18.2761905,19.9390476 18.3104762,19.9295238 C18.3142857,19.9295238 18.3161905,19.927619 18.32,19.927619 C18.352381,19.92 18.3847619,19.9104762 18.4152381,19.8990476 C18.4209524,19.8971429 18.4266667,19.8952381 18.4304762,19.8933333 C18.4609524,19.8819048 18.4895238,19.8704762 18.5180952,19.8552381 C18.5257143,19.8514286 18.5314286,19.847619 18.5390476,19.8438095 C18.5485714,19.8380952 18.56,19.8342857 18.5695238,19.8285714 L28.4666667,14.1142857 C28.9219048,13.8514286 29.0780952,13.2685714 28.8152381,12.8133333 L28.8171429,12.8095238 Z" id="Shape"></path>
                            </g>
                        </g>
                    </g>
                </g>
            </g>
        </g>
    </g>
</svg>