<?xml version="1.0" encoding="utf-8"?>
<!-- Generator: Adobe Illustrator 18.0.0, SVG Export Plug-In . SVG Version: 6.00 Build 0)  -->
<!DOCTYPE svg PUBLIC "-//W3C//DTD SVG 1.1//EN" "http://www.w3.org/Graphics/SVG/1.1/DTD/svg11.dtd">
<svg version="1.1" id="Layer_1" xmlns="http://www.w3.org/2000/svg" xmlns:xlink="http://www.w3.org/1999/xlink" x="0px" y="0px"
	 viewBox="0 0 609.7 254.3" enable-background="new 0 0 609.7 254.3" xml:space="preserve">
<path fill="#E88495" d="M401.9,150.8c-0.5,0.8-0.9,1.7-1.5,2.4c-4.2,4.9-9.6,8-15.7,9.8c-3.2,0.9-6.8,0.9-9-2.2
	c-1.1-1.5-1.7-3.6-2-5.5c-0.6-4.8,0.9-9.2,3-13.4c3.2-6.3,6.7-12.4,9.8-18.8c2.2-4.5,2.2-7.4-2.1-10.8c-1.2-0.9-1.9-0.7-2.6,0.6
	c-3.9,6.9-7.6,13.9-11.7,20.7c-4,6.5-8.5,12.6-13.9,18c-5.3,5.3-11.2,9.4-18.4,11.3c-3.6,0.9-7.4,1.2-11.2,0
	c-1.4-0.5-3.1-0.4-4.6-0.1c-4.9,1-9.7,2-14.8,0.7c-4.2-1-7-3.3-8.6-7.2c-0.5-1.2-0.4-2.5-0.7-3.8c-0.1-0.6-0.4-1.2-0.7-1.7
	c-0.6,0.3-1.3,0.5-1.7,1c-4.2,4.4-8.7,8.2-14.2,10.9c-3.3,1.7-6.8,1.8-10.3,1.4c-2.4-0.3-5.6-3.9-6.1-6.5c-0.3-1.5-0.5-3-0.8-4.5
	c-1.8-0.6-2.6,1-3.6,1.9c-3.4,3.1-7,5.9-11.2,7.9c-2.9,1.4-6.1,2.1-9.3,1.3c-2.9-0.7-4.6-2.9-5.7-5.6c-0.4-1.1-0.8-2.3-1.4-3.8
	c-0.9,0.8-1.7,1.2-2.2,1.8c-3.1,3.2-6.7,5.5-10.8,7.1c-4.9,1.9-11.7,0.6-14.8-3.6c-1.4-1.9-2.3-4.3-2.6-6.7
	c-0.8-6.2,0-12.4,2.5-18.2c3.5-8.2,8.3-15.7,14.2-22.4c3.5-4,7.1-7.8,11.5-10.9c5.1-3.5,10.6-6,17-5.2c2.9,0.4,5.7,1,7.2,4
	c0.2,0.5,0.4,1,0.5,1.5c0.3,1.8,1.1,2,2.6,1.1c2.4-1.6,4.8-3.3,7.4-4.3c3.6-1.4,7.4-1.4,11.4-0.4c-0.8,1.7-1.5,3.3-2.3,4.8
	c-4.9,9.5-9.8,18.9-14.7,28.3c-2.8,5.5-5.7,10.9-8.6,16.4c-0.8,1.5-1.4,3.1-2,4.7c-0.2,0.5,0,1.1,0.1,1.7c0.5-0.1,1.2,0.1,1.6-0.2
	c5.1-2.7,9-6.6,13-10.7c3.9-3.9,6.8-8.5,9.3-13.4c2.6-5.1,5-10.2,7.6-15.3c2.7-5.3,5.4-10.6,8.3-15.8c4.6-8.3,9.1-16.7,14-24.9
	c4.3-7.1,8.9-14.1,13.8-20.9c7.9-11.1,16.9-21.3,27.3-30.2c5.9-5.1,12.3-9.6,19.2-13.2c6.6-3.4,13.5-6.2,20.8-7.6
	c5.3-1,10.7-1.9,16.1-2.3C404.8-0.2,409,0.2,413,1c3.5,0.6,7,1.8,10.1,3.4c3,1.5,5.7,3.8,8.1,6.1c2.7,2.6,5.1,5.5,6.6,9
	c1.2,2.9,2.3,5.8,0.7,8.8c-1.3,2.5-3.4,4-6.1,4.8c-1.2,0.3-1.4-0.3-1.7-1.3c-1.1-3.7-2.1-7.5-3.8-10.9c-3.1-6.1-8.2-10.2-14.5-12.6
	c-6.8-2.6-13.9-2.6-20.9-1.3c-3.7,0.7-7.3,1.7-10.9,3c-6.5,2.3-12.5,5.6-18.1,9.8c-8.8,6.7-15.3,15.4-22,24
	c-6.7,8.6-12.7,17.7-18,27.2c-4,7.3-7.8,14.8-11.7,22.2c-3.7,7.2-7.4,14.4-11.2,21.6c-3.9,7.5-7.8,15.1-11.7,22.6
	c-2.6,4.9-5.2,9.8-7.8,14.8c-0.2,0.5-0.4,1-0.5,1.5c-0.3,1.4,0.6,2.2,1.8,1.6c1.8-0.9,3.5-1.9,5.1-3.1c4.7-3.5,9-7.6,12.8-12.1
	c0.7-0.9,1.1-2.1,1.5-3.2c2.4-7.7,6.9-14.2,11.8-20.5c4.2-5.4,9-10.3,14.9-13.9c5.6-3.4,11.5-5.5,18.2-5.2c5.1,0.2,9.6,1.8,12.9,5.9
	c0.9,1.1,1.4,2.7,1.6,4.2c0.6,5.6-0.2,11.1-2.4,16.3c-1.7,4-3.4,8.2-5.5,12c-3.4,6-7.7,11.2-12.8,15.9c-0.8,0.8-1.5,1.7-2.5,2.8
	c2.6,1,4.5-0.1,6.3-0.9c5.7-2.6,9.9-7,14-11.7c5.6-6.4,9.5-13.7,13.5-21.1c2.1-4,4.1-8.1,6.1-12.2c0.4-0.8,0.5-2.1,0.1-2.8
	c-4.5-8.7,2.6-19.4,9.7-21.6c1.1-0.3,2.1-0.8,3.1-1.1c0.9-0.2,1.6,0.2,1.5,1.2c-0.2,2.3-0.3,4.7-0.9,7c-1,3.5-2.3,6.9-3.6,10.3
	c-1.4,3.7-1,4.4,2,6.9c3,2.5,6.1,5.1,8.5,8.1c2.8,3.5,3.4,7.7,2.7,12.2c-0.9,5.4-3.7,9.9-6.3,14.5c-1.6,2.8-3.1,5.5-4.6,8.4
	c-0.3,0.6-0.5,1.4-0.8,2.6c1.1-0.3,2-0.2,2.4-0.6c3.8-3.4,7.5-6.8,11.2-10.2c2.5-2.3,3.3-5.4,4.4-8.5c1.1-3.2,2.4-6.5,4.2-9.4
	c5.2-8.5,11.4-16.2,19.3-22.3c4.3-3.4,9.3-5.3,14.8-5.5c3.7-0.2,6.8,1.1,8.6,4.6c0.2,0.4,0.5,0.7,0.9,1.3c0.6-0.6,1.2-1,1.5-1.6
	c1.3-2.2,2.4-4.4,3.7-6.6c2.6-4.6,5.1-9.2,7.8-13.8c2.4-4,4.8-8,7.3-11.9c3.3-5,6.5-10.1,10-14.9c7.6-10.4,16-20.2,25.8-28.7
	c6.4-5.5,13.3-10.1,20.7-14c7.1-3.7,14.5-6.6,22.2-8.3c8.9-2,17.9-2.9,27-0.6c5.5,1.4,9.9,4.3,13.9,7.9c3.6,3.3,7,6.9,8.6,11.7
	c2.1,6.3-0.7,11.1-7.2,12.5c-0.3-1-0.6-2-0.9-3.1c-1.6-6.3-3.9-12.3-8.7-16.9c-4.9-4.7-11-6.5-17.5-7c-5.6-0.5-11.1,0.5-16.4,1.9
	c-9.1,2.4-17.1,7-24.4,13c-9.4,7.8-17.3,16.8-24,27c-4.1,6.2-8.1,12.5-11.9,19c-6.1,10.5-12,21.2-17.9,31.8
	c-4.7,8.5-9.3,17.2-13.8,25.8c-4,7.7-7.8,15.5-11.6,23.3c-0.5,1-0.8,2.1-1.2,3.1c-0.5,1.4,0.1,2.2,1.6,1.7c1.8-0.7,3.8-1.5,5.3-2.7
	c2.8-2.3,5.3-5,7.9-7.5c0.4-0.4,0.6-0.9,1-1.2c2.9-2.3,3.6-5.6,4.4-8.9c1.3-5.4,3.6-10.4,6.6-15.1c5.1-8.1,12.4-13.5,21-17.5
	c4.6-2.1,9.3-3.7,14.3-4.2c6.7-0.6,12.9,2.1,14.9,8.2c2.3,7.1,0.1,14-5.9,18.6c-4.9,3.8-10.3,6.7-16.4,8.4
	c-4.2,1.2-8.3,2.6-12.5,3.9c-1.3,0.4-2.7,0.8-4.1,0.9c-2.2,0.2-3.4,1.6-3.8,3.6c-0.7,3.5-1.6,7-0.4,10.7c0.6,1.9,1.7,3.2,3.5,3.8
	c4.7,1.8,9.3,1.2,13.8-0.4c7.8-2.8,13.9-8.1,19.1-14.4c4.1-4.9,7.8-10.2,11.7-15.3c0.4-0.5,0.9-0.9,1.4-1.3c0.9,0.4,1.7,0.7,2.8,1.2
	c-0.2,0.9-0.2,1.8-0.5,2.7c-2.6,6.8-7,12.4-11.8,17.7c-4.4,4.9-9.4,9.2-15.1,12.8c-7.2,4.5-15.1,6.6-23.5,5.1
	c-6.6-1.1-11.9-4.6-15-10.8c-0.3-0.7-0.4-1.5-0.7-2.2c-0.7-1.8-1.2-1.9-2.6-0.6c-1.8,1.7-3.7,3.5-5.5,5.2c-3.6,3.4-7.8,5.9-12.6,7.3
	c-1.7,0.5-3.6,0.8-5.3,1.2c-3.8,0.8-7.4-2.8-8.4-6.8c-0.5-2-0.9-2.1-2.6-0.9c-2.5,1.8-5,3.8-7.7,5.2c-5,2.5-10.2,2.6-15.2-0.4
	c-1.9-1.2-2.6-3.1-3.2-5.1c-0.4-1.5-0.8-3-1.2-4.5C402.5,151.2,402.2,151,401.9,150.8z M312.9,153.3c0,0.9-0.1,1.8,0,2.6
	c0.1,0.5,0.4,1.2,0.9,1.4c1.8,0.9,5.3-1.6,5.4-3.6c0.1-1.8,0.3-3.7,1-5.3c1.8-4.1,5.2-6.2,9.4-7.2c1.8-0.5,3.7-0.6,4.7-2.7
	c3.5-6.9,7.1-13.8,10.5-20.7c1.6-3.3,2.1-6.9,1.9-10.5c-0.1-2.8-2-4.1-4.6-3.1c-1,0.4-2,0.9-2.7,1.6c-3.4,3.5-7.1,6.9-10.1,10.9
	c-5.9,7.9-10.2,16.9-13.7,26.1C314.4,146.3,312.8,149.6,312.9,153.3z M218,152.7c0.5,1.4,0.7,3.1,1.4,3.4c1,0.4,2.5-0.1,3.6-0.7
	c1.3-0.6,2.6-1.5,3.5-2.6c2.7-3.1,5.2-6.3,7.7-9.6c5.2-7,9.1-14.8,12.8-22.7c1.9-4.1,3.2-8.5,3.4-13.1c0.1-2.3-0.7-3-2.8-2.2
	c-1.1,0.4-2.2,1.1-3.2,1.9c-7,5.6-11.9,13-16.3,20.7c-2.6,4.6-5,9.5-7,14.4C219.7,145.7,218.9,149.3,218,152.7z M449,109.1
	c-0.4-0.9-0.5-2.2-1.1-2.4c-0.8-0.3-2.1,0-2.9,0.5c-4.2,2.3-7.3,5.9-10.1,9.7c-4.1,5.4-7.5,11.2-10.6,17.3c-2.8,5.5-5,11.2-6,17.2
	c-0.3,1.6-0.3,3.4,1.3,4.3c0.8,0.4,2.4,0,3.2-0.6c2-1.6,3.9-3.3,5.4-5.2c6.7-8.7,12.4-18,16.7-28.1
	C446.6,117.6,448.6,113.7,449,109.1z M510.6,109c-0.1-0.9,0-1.5-0.1-2.2c-0.4-2.1-1.4-2.8-3.3-1.9c-1.6,0.7-3.2,1.5-4.5,2.7
	c-4.7,4.1-8.1,9.1-11.3,14.4c-1.3,2.2-2.7,4.4-4,6.6c-0.2,0.4-0.3,1.3-0.1,1.4c0.5,0.3,1.2,0.5,1.7,0.3c1-0.4,2-1.1,3-1.5
	c6.2-2.6,11.4-6.5,15.4-11.9C509.1,114.5,510.5,111.9,510.6,109z"/>
<path fill="#E88495" d="M161,154.7c-1.3,1.1-2.5,2.1-3.8,3.2c-5.9,4.7-11.9,9.5-18.8,12.7c-3.9,1.8-8.1,2.1-12.5,1
	c-3.8-1-7-2.6-8.8-6.2c-1-1.9-1.9-3.9-2.4-6c-2-8.4-0.7-16.6,1.4-24.8c2.7-10.8,7-20.9,12-30.7c4-7.9,9-15.4,13.7-23
	c5.1-8.1,11.3-15.3,17.8-22.3c3-3.3,6.5-6.2,9.7-9.3c0.5-0.5,0.7-1.1,1-1.7c-0.6-0.3-1.2-0.6-1.8-0.8c-3.9-0.8-7.8-1.7-11.7-2.4
	c-3.9-0.8-7.9-1.5-11.8-2.1c-8.5-1.4-17.1-2.1-25.7-2.1c-7.4,0-14.7,0.7-22,2.2C87,44.6,77,47.9,67.7,53.1
	c-9,5.1-17.1,11.2-23.9,19.1c-6.5,7.6-12.4,15.7-16.3,25c-1.9,4.7-3.1,9.8-3.9,14.8c-1,5.9-1.4,11.9-1.8,17.9
	c-0.3,5.6,0.6,11.2,2.6,16.5c1,2.6,3.2,4.8,5,7.2c0.2,0.3,0.9,0.3,1.6,0.6c0.1-0.9,0.2-1.5,0.1-2.1c-0.7-9.7,0-19.4,2-28.9
	c0.8-4.1,2.1-8.2,3.6-12.2c2-5.3,4.2-10.5,6.7-15.5c5.4-10.7,12.6-20,21.8-27.6c4.6-3.8,9.5-7,14.9-9.4c6.2-2.7,12.9-4.1,19.7-2.9
	c6.1,1,10.8,4.4,14,9.8c4.1,7,4.7,14.5,3.3,22.2c-0.9,5-2,9.9-3.4,14.8c-0.9,3.2-2.6,6.2-4,9.2c-4,8.1-8.9,15.6-14.3,22.8
	C88,144.2,79,152.2,68,157.8c-5.6,2.8-11.6,4.6-17.6,6.2c-1.1,0.3-1.7,0.8-1.4,1.9c1.6,6.3,4.4,12.1,9.2,16.6
	c6.1,5.7,13.4,7.6,21.5,6.5c5.1-0.7,9.5-3.4,14.2-5.1c1.6-0.6,3.2-1,4.9-1.5c0.3,3.4-1.2,5.7-5,7.6c-8.8,4.6-18.3,6.2-28.1,5.1
	c-5.1-0.5-9.8-2.7-14.1-5.6c-7.4-5.1-12.1-12.3-15.7-20.2c-0.1-0.3-0.1-0.7-0.3-1c-0.6-1.6-1.1-3.1-3.2-3.3
	c-3.9-0.4-7.3-2.1-10.8-3.8C11.5,156.4,5.1,148.2,2,137.5c-2.2-7.5-2.3-15.3-1.5-23.1c1-9.6,3.9-18.6,8.5-27
	c3.5-6.5,7.9-12.4,13-17.8c5.6-5.9,11.7-11.1,18.6-15.3c5.5-3.4,11.3-6.6,17-9.7c8.4-4.4,17.4-7,26.6-9.2c12.4-3.1,25-4.1,37.7-3.2
	c6.4,0.5,12.9,1.5,19.3,2.3c5.4,0.7,10.8,1.3,16.1,2.4c6.5,1.3,13,3.1,19.5,4.7c1.5,0.4,3,0.5,4.6-0.1c5.3-1.9,10.7-2.3,16,0.1
	c3.8,1.7,5.1,5.3,4.8,9.2c-0.1,1.2-0.4,2.3-0.5,3.5c-0.2,1.7-0.9,2.1-2.4,1.5c-4-1.5-8.1-2.8-12.1-4.4c-2.9-1.2-4.7,0.1-6.6,2.1
	c-9.1,9.5-16.1,20.6-22.5,32c-4.5,7.9-8.4,16.2-12.8,24.2c-4.7,8.6-8,17.7-11.6,26.7c-2.3,5.8-4.2,11.7-4.4,17.9
	c-0.1,3.1,0.4,6.3,0.8,9.4c0.2,1.4,1.9,2.1,3.4,1.6c4.9-1.6,9.3-3.9,13.3-7.1c9.6-8,18.9-16.2,26.4-26.2c3.8-5.1,7.1-10.5,10.2-16
	c4.6-8.1,8.7-16.4,13.1-24.6c2.7-5.1,5.3-10.3,8.3-15.3c6.2-10.3,12.9-20.3,21.8-28.5c5-4.6,10.6-8.1,17.2-9.7
	c2.5-0.6,5.2-0.9,7.7-0.8c4,0.2,8.2,0.3,12,1.5c7.9,2.5,14.6,6.9,18.8,14.3c2,3.4,3.9,6.9,5,10.6c1.2,3.7,1.4,7.7,2,11.6
	c0,0.3-0.2,0.6-0.4,1.1c-3.1-2.8-5.1-5.9-6.1-9.9c-0.8-3.2-2.5-6.2-4.3-9c-2.9-4.5-6.6-8.4-11.4-10.7c-5.6-2.7-11.6-2.7-17.3-0.2
	c-7.6,3.3-13.2,9.1-17.5,16c-5.1,8.1-9.7,16.5-14.4,24.9c-3.9,6.9-7.5,14-11.2,21c-4.1,7.8-8,15.7-12.1,23.5c-3.2,6-6.5,12-9.9,17.9
	c-3.9,7-7.9,13.9-12,20.8c-3.1,5-6.2,10-9.8,14.7c-5.9,8-11.9,15.9-18.3,23.5c-4.2,5-8.9,9.6-13.8,13.9c-5.4,4.8-11,9.5-16.9,13.6
	c-5.4,3.7-11.2,6.8-17.1,9.5c-5.5,2.4-11.4,4-17.1,5.8c-9.7,3-19.8,2.9-29.8,2.4c-5.5-0.3-10.7-2.2-15.7-4.5
	c-8.1-3.7-14.3-9.5-19-16.8c-2.6-4.1-4.1-8.8-0.9-13.4c1-1.5,2.6-2.8,4.2-3.6c2.1-1.1,5.3,1.2,6.1,4c1,3.3,1.6,6.7,3,9.7
	c2.9,6.3,7.9,10.6,14.1,13.8c9,4.5,18.4,5.2,28.2,3.8c5.1-0.7,10.1-1.7,14.9-3.4c5.4-2,10.5-4.7,15.3-7.9
	c8.8-5.9,16.4-13.1,23.5-20.8c2.8-3,5.6-6,8.2-9.3c2.8-3.6,5.5-7.2,7.9-11.1c4.7-7.3,9.3-14.7,13.7-22.2c2.9-4.9,5.3-10,7.9-15
	c0.2-0.5,0.2-1.1,0.4-1.6C161.4,155,161.2,154.9,161,154.7z M110.2,81.3c0-2.2,0.2-4.5-0.1-6.7c-0.6-4.3-2.7-7.7-6.9-9.3
	c-5.3-2-10.1-0.4-14.6,2.4c-4,2.4-7.4,5.6-10.5,9.1c-3.7,4.4-7.9,8.4-11.3,13c-5,6.6-8.8,14-11.8,21.8c-2,5-3.2,10.3-4.8,15.4
	c-2.7,9.3-2.7,18.9-3,28.4c0,1.3,0.8,2,2.1,1.7c2.6-0.6,5.3-1,7.7-1.9c5.6-2.2,11-4.7,15.9-8.3c5.5-4.1,10.4-8.7,14.8-13.9
	c7.6-9.2,14.1-19,18.5-30.3C108.7,95.8,110.7,88.9,110.2,81.3z"/>
<rect x="229.9" y="183.8" fill="#010101" width="283.3" height="44"/>
<g>
	<path fill="#FFFFFF" d="M263.2,205.3c1.8,1.6,2.9,3.9,2.9,6.4c0,4.7-3.8,8.5-8.4,8.5h-10.8v-26.6h10.8c3.9,0,7,3.2,7,7.2
		C264.8,202.4,264.2,204,263.2,205.3z M252.6,203.3h5.3c0.7-0.2,1.3-1.3,1.3-2.5c0-1.3-0.6-2.4-1.4-2.4h-5.2V203.3z M260.5,211.7
		c0-2-1.2-3.7-2.6-3.8h-5.3v7.5h5.2C259.3,215.5,260.5,213.8,260.5,211.7z"/>
	<path fill="#FFFFFF" d="M303.9,206.9c0,7.7-6.1,13.6-13.6,13.6c-7.5,0-13.6-5.9-13.6-13.6c0-7.7,6.1-13.6,13.6-13.6
		C297.8,193.3,303.9,199.2,303.9,206.9z M282.3,206.9c0,4.5,3.3,8.9,8,8.9c4.7,0,8-4.3,8-8.9c0-4.6-3.2-8.9-8-8.9
		C285.6,198,282.3,202.4,282.3,206.9z"/>
	<path fill="#FFFFFF" d="M337,193.6v16c0,4.4-1.8,10.9-11,10.9c-9.2,0-11-6.6-11-10.9v-16h5.7v16c0,1.3,0.3,6.2,5.3,6.2
		s5.3-4.9,5.3-6.2v-16H337z"/>
	<path fill="#FFFFFF" d="M368.2,198.3h-7.7v21.9h-5.7v-21.9h-7.7v-4.7h21.1V198.3z"/>
	<path fill="#FFFFFF" d="M385,220.2h-5.7v-26.6h5.7V220.2z"/>
	<path fill="#FFFFFF" d="M422.1,222.6l-3.5-3.8c-2.1,1.3-4.5,1.8-7.2,1.8c-7.6,0-13.7-5.9-13.7-13.6c0-7.7,6.1-13.6,13.7-13.6
		c7.5,0,13.6,5.9,13.6,13.6c0,3.2-1.1,6.1-2.9,8.5c1.1,1.2,2.5,2.7,3.5,3.8L422.1,222.6z M415.1,214.9l-3.6-3.9l3.6-3.4l3.3,3.6
		c0.6-1.3,1-2.9,1-4.4c0-4.5-3.2-8.9-7.9-8.9c-4.7,0-8,4.3-8,8.9c0,4.2,2.9,8.9,8,8.9C412.7,215.8,413.9,215.6,415.1,214.9z"/>
	<path fill="#FFFFFF" d="M459.3,193.6v16c0,4.4-1.8,10.9-11,10.9c-9.2,0-11-6.6-11-10.9v-16h5.7v16c0,1.3,0.3,6.2,5.3,6.2
		s5.3-4.9,5.3-6.2v-16H459.3z"/>
	<path fill="#FFFFFF" d="M491.7,215.5v4.7h-19.2v-26.6H491v4.7h-12.9v5.7h10.6v4.7h-10.6v6.7H491.7z"/>
</g>
<g id="c3xjE6_1_">
	<g>
		<path d="M592,244.5c0.5,0.4,1,0.8,1.5,1.2c0.6,0.5,1.2,0.5,1.8,0c1.1-1.1,2.2-0.8,3.4-0.1c1.7,1,2.3,1.4,3.7-0.4
			c0.4-0.6,1.2-0.7,1.9-0.8c2.9-0.6,3.3-0.9,4.7-3.4c0,1.4-0.7,3.1-2.1,4.4c-2.2,2.3-5.1,3.2-8.1,3.7c-3.2,0.6-6.4,0.5-9.7,0.4
			c2,0.5,4.1,0.7,6.2,0.7c2.7,0,5.4-0.4,8-1.3c2.9-1.1,5-3,6.4-5.7c0,0.4,0,0.7,0,1.1c-0.7,1.3-1.4,2.6-1.7,4.1
			c-0.5,2.5-1.8,3.3-4.3,2.7c-1-0.2-1.8-0.1-2.4,0.8c-0.5,0.8-1.3,1.3-2,1.9c-0.7,0-1.3,0-2,0c-2-1.3-3.9-1.9-5.9,0
			c-0.6,0-1.1,0-1.7,0c-0.8-0.5-1.7-1-2.5-1.4c-2.3,1.6-4,1.6-6.4-0.1c-1.3-0.9-2.6-1.3-4.2-1.3c-1.2,0-2.4,0-3.6-0.3
			c-2.1-0.5-4.1-0.2-6.1,0.1c-2.9,0.4-7.2,0.2-9.5-0.6c2-0.2,3.8-0.5,5.6-1.1c2.5-1,4.4-2.5,5-5.2c0.4-1.6,1.6-1.9,3-2.1
			c2.1-0.2,2.2-0.4,1.8-2.5c-0.7-3.2,0.1-4.8,2.9-6.4c-1.5-2.5-1.4-4.8,0.8-7.1c-0.9-0.3-1.7-0.6-2-1.6c-0.3-0.8-0.3-1.7-0.1-2.5
			c1.3-4.3-0.2-7.7-3.4-10.4c-3.4-2.9-7.2-4.5-11.8-3.4c-3.8,0.9-6,3.7-6.3,7.6c-0.1,1.7,0.1,3.5-0.2,5.2c-0.2,1-0.5,1.9-1,2.7
			c-0.4,0.6-1,1.1-1.8,1.2c-0.8,0.1-1.5,0-1.9-0.9c-0.3-0.7,0-1.2,0.6-1.5c0.9-0.4,1.4,0.1,1.6,0.9c1.6-1.1,2-2.9,1.1-4.9
			c-0.3-0.7-0.7-1.3-0.9-2c-0.7-1.9-0.4-2.7,1.1-4.1c-0.8-0.9-1.2-2-0.5-3.2c0.6-1.1,1.3-1.3,4.7-1.2c0.2-0.2,0.2-0.4,0.2-0.6
			c-0.2-2.4,1-3.6,3.5-3.3c1,0.1,2,0.5,2.9,1c2,1.2,4,2.5,5.9,3.7c6,3.8,8.9,9.5,10,16.3c1.5,8.6-1.4,15.6-7.4,21.6
			c1.1-0.6,2.1-1.5,2.9-2.4c6.2-6.9,7.1-14.9,4.3-23.5c-0.5-1.6-0.9-3.1-1.5-4.7c-1.4-3.8-4.3-6.2-7.8-7.9c-2.5-1.3-4.9-2.8-6.6-5.1
			c-0.6-0.7-1.1-1.5-1.8-2.5c0.3,1.4,1,2.3,1.8,3.6c-2.1-0.9-4-0.8-5.9-1.1c-2-0.3-2.4-1.6-1.3-3.1c-2.3-0.7-2.5-1-2.3-3.3
			c0-0.1,0-0.3,0-0.4c-1.3-1.4-0.7-3.1-0.5-4.7c0.3-2.1,0.2-4.1-0.1-6.1c-0.8-4.3,0.1-8.2,2.4-11.8c1.6-2.4,3.2-4.8,4.7-7.3
			c2.7-4.4,3.1-9,1.4-13.9c-0.9-2.5-2.4-4.3-5.3-4.8c-2-0.3-2.1-0.6-2-2.7c-0.9-0.5-2.1-0.2-3-0.9c-0.9-0.7-0.9-1.6-0.1-2.8
			c-2.3-1.4-2.6-2.9-1-4.9c-2-1.6-2.3-2.6-1-4.9c0.8-1.5,0.9-3.1,1.1-4.8c0.1-1,0.2-2,0.8-3c-0.6,3.3,0.2,6.6,0.2,9.9
			c0,3.9,1.8,6.9,4.7,9.5c-0.8-1.3-1.5-2.5-2.3-3.8c-0.9-1.5-1.4-3.2-1.5-4.9c-0.2-2.9-0.6-5.9-0.5-8.8c0.1-2.3,0.6-4.5,1.7-6.4
			c1.2-2,2.3-4,3.3-6.2c0.2,0.6-0.1,1-0.3,1.5c-0.5,1.1-1.2,2.2-1.7,3.4c-2.2,4.4-3,8.8-0.6,13.4c0.7,1.4,1,2.9,0.1,4.4
			c2.2,0.7,2.5,1.1,2.1,3.7c1.1-0.1,1.7,0.4,1.9,1.4c0.2,0.9-0.3,1.7-0.5,2.5c1.7,0.4,2,0.5,2.1,1.4c0.1,2.5,2.2,3.9,3.1,6
			c-0.4-2.4-1.7-4.5-2.1-7c0-0.3-0.4-0.7-0.6-0.9c-1-1-1.2-2.1-0.3-3.2c-1.8-1.1-2-1.5-1.4-3.2c-0.8-0.2-1.6-0.4-1.8-1.3
			c-0.3-1.4-1.2-2.4-1.9-3.5c-1.7-2.9-1.5-5.8-0.2-8.9c0.1,0.3,0.1,0.4,0.1,0.5c-0.1,0.4-0.2,0.8-0.3,1.2c-0.8,3.2-0.1,5.8,2.4,7.9
			c0.5,0.4,1,0.8,1.5,1.2c2.3,1.7,3.7,3.9,3.9,6.8c0,0.3-0.1,0.6,0.2,0.8c0.8-3.4-0.5-5.9-3.3-7.8c-1.5-0.9-2.8-2-3.7-3.6
			c-0.9-1.6-1.4-3.3-0.5-5.4c0,1-0.1,1.6,0,2.3c0.5,3,2.6,4.5,5.2,5.6c1.1,0.4,2.2,0.7,2.3,2.1c0,0.2,0.3,0.3,0.5,0.5
			c2.3,1.1,2.6,2.1,0.9,4.2c1.3,1.1,0.7,2.3,0,3.4c-1.2,1.8-1.4,3.6-0.7,5.6c0.1,0.9,0.3,1.7,0.4,2.6c1,6.3,0.7,12.5-2.8,18.1
			c-0.6,1-1.3,1.9-1.3,3.1c0,2.2-1.1,3.4-3,4.3c-0.9,0.4-1.4,1.2-0.9,2.2c0.7,1.5,0.4,2.8-0.9,3.9c-0.5,0.5-0.8,1.1-0.2,1.7
			c0.8,0.8,0.6,1.7,0.2,2.6c-0.2,0.4-0.3,0.9-0.3,1.4c0.1,3.6,0.8,7,2.7,10c0.4,0.7,1,1.3,1.5,2c-0.7-2-1.6-3.8-2.2-5.7
			c-0.6-1.9-1.2-3.8-1.5-6c0.3,0.4,0.5,0.7,0.9,1.3c-0.7-2.1-0.3-3.5,1.6-4.1c-2.1-3.3-1.8-5.1,1-5.9c-0.6-1-1.3-2-0.7-3.3
			c0.6-1.3,2.1-0.8,3.2-1.5c-1.5-2.4-0.1-3.8,1.8-5c1.3-0.9,2.2-2.2,2.7-3.7c0.9-2.8,1.2-5.7,0.4-8.6c-0.4-1.4-0.7-2.8,0-4.2
			c-0.7-0.3-1.2-0.7-1.3-1.5c-0.2-1.5,0.7-2.6,1.5-3.7c-1.2-1.6-1.1-2.5,0.1-3.7c1.1-1.1,2.5-1.2,4-1.2c0.4-1.7,0.4-1.8,2-2.5
			c1-0.5,2.1-0.9,3.1-1.3c3.5-1.6,6-5.9,5.5-9.6c-0.3,1.5-0.4,3.2-1.8,4.1c-0.6,0.4-0.9,0.8-1.1,1.5c-0.7,2.2-2,3.1-4.2,2.7
			c-0.2,0.7-0.3,1.6-1.1,2c-0.9,0.5-1.5-0.5-2.2-0.8c-1.4,2.8-1.1,2.2-2,2.3c-2.3,0.1-3.4,1.5-4.1,3.4c-0.4,1-0.6,2.1-0.9,3.2
			c0-2.5,0.8-4.8,2-6.9c0.2-0.4,0.4-0.8,0.2-1.3c-0.6-1.5-0.1-2.3,1.5-2.7c0.5-0.1,1.1,0,1.6-0.3c-1.2-1.9-0.5-2.6,2.8-2.8
			c0.6-2.2,2.6-1.8,4.1-2.2c-0.2-1.5,0.9-2.3,1.8-3.3c1.8-2.1,1.6-4.4,0.9-6.8c0.2,4.4-1.7,7.7-5.4,10.1c-0.8,0.5-1.7,0.9-2.6,0.6
			c-0.6-0.2-0.9-0.1-1.4,0.2c-1.7,1.1-3.1,0.8-4.4-0.7c-2.7,0.8-3.7,0.4-4.3-1.7c-2.5-0.3-3.1-1.1-2.5-3.2c-2.1-1.1-2.3-1.9-1.1-3.9
			c-1.7-1.7-1.7-1.9-0.6-4c0.1-0.2,0.2-0.4,0.2-0.5c-0.4-1.2,0.3-2.1,0.8-3c0.5-0.8,0.7-1.7,0.7-2.7c-0.2,0.2-0.4,0.3-0.6,0.5
			c0.2-1.2,0.3-2.4-0.1-3.6c1.2,0,1.5,0.8,1.7,1.6c0.5,1.8,0.8,3.6,2.5,4.8c0.2,0.2,0.5,0.6,0.4,0.8c-0.4,1.5,0.9,2.5,1.1,3.8
			c-0.4,0.2-0.5,0.6-0.6,1c1.5,0.4,1.8,1.5,1.4,2.9c0.5,0.1,0.8,0.1,0.9,0c0.4-1.2-0.2-1.8-1-2.4c-0.3-0.2-0.6-0.6-0.5-1.1
			c0.9,0.8,1.7,1.7,2.9,0.5c0.5-0.5,0.9,0.1,1.4,0.4c0.6-1.1,1.5-1.2,2.6-0.4c0-1.6,0.9-2,2.2-1.9c0.2-2.1,2.8-3.4,1.6-5.8
			c-0.7,2.5-1.9,4.5-4.3,5.6c-2.6,1.2-4.8,0.1-7-1.4c0.9-0.1,1.6,0.3,2.4,0.4c3.5,0.7,5.6-0.5,6.5-4c0.8-2.9,2-5.8,0.3-8.7
			c0.3-0.4,0.5-0.4,0.7-0.2c1.6,1.1,2.8,0.3,3.9-0.8c1.6-1.6,3.1-3.4,4.5-5.2c2.1-2.6,4.4-4.9,7-6.9c2.8-2.2,3-3.1,1.3-6.1
			c-1.6-3-3.2-5.9-4.9-8.8c-0.5-0.9-1.1-1.7-1.7-2.5c-1.8-2.3-3-2.3-4.4,0.3c-3.3,6.2-5.4,12.8-6.5,19.8c-0.5,3-0.5,6-0.2,9
			c0,0.3,0.2,0.6,0,0.8c-1.3,1.4-1.4,3.3-2,5c-0.5,1.6-1.2,3.1-3.1,3.5c-2.1,0.4-3.9-0.2-5.3-1.8c-1.6-1.7-2-3.9-2.3-6.3
			c-1.2,0.9-0.2,3.3-2.4,3.1c0.5,1.6-0.4,2.2-1.5,2.7c0.3,2.1-0.5,3.4-2.7,4.4c-2.2,0.9-3.8,2.4-4.3,4.8l0,0
			c-0.7-0.4-0.3-0.9-0.2-1.3c0.8-2.7,2.2-5.1,2.7-7.9c0.1-0.5,0.4-1,0.8-1.1c0.9-0.3,0.8-1.2,1.2-1.6c1.1-1.1,1.8-2.6,3.4-3.3
			c0,0,0.1-0.1,0.1-0.1c0.1-0.5,0.2-1.1,0.2-1.6c-0.4-2.3,1-4.4,0.9-6.7c-0.1-2.5-0.5-4.9-1.5-7.2c-0.3-0.6-0.6-1-1.3-1.3
			c-1.6-0.5-1.8-1.1-1.3-2.6c0.5-1.6,1-3.2,1.5-4.8c0.1-0.4,0.3-0.8,0.7-1c-0.6,2.6,1.3,4.1,2.7,5.9c0-1.1-0.5-1.9-1.2-2.6
			c-0.9-0.9-1.4-2.1-1.5-3.4c-0.1-0.2-0.3-0.4-0.5-0.7c-0.7,2-1.3,3.9-1.9,5.8c-1.2,3.4-2.6,6.7-4.8,9.7c-1.5,2.1-2.6,2.1-4.1,0
			c-1.9-2.7-2.9-5.9-3.8-9c-1-3.5-1.6-7.1-2.3-10.7c-0.6-3.1-1.4-3.9-4.5-4.4c-1.1-0.2-2.1-0.2-3.3-0.6c-2.9,8.5-3.8,17-3.2,25.8
			c-1.2-8.8,0.2-17.4,2.8-26c-0.7-0.5-1.4-1.2-2.2-1.4c-1.1-0.4,0.4-1.5-0.7-1.8c0.5-0.2,1,0.2,1.1,0.1c0.8-1,1.3-0.1,1.7,0.2
			c1.6,1.4,3.4,1.8,5.6,1.5c-0.6-0.7-1.9-0.7-2.2-2c1.3,0.8,2.6,1,3.8,1.2c1,0.2,1.7,0.8,1.9,1.8c1.3,5.3,3.7,10.1,5.6,15.1
			c0.5,1.2,0.9,2.5,1.4,4.1c1.2-7.1,3.3-13.6,4.7-20.4c0.2-0.9,0.5-1.8,0.8-2.7c1.2-3.1,3.4-4.2,6.6-3.4c0.1,0,0.3,0.1,0.4,0.1
			c3.6,1,5.7-0.7,5.7-4.4c0-1.2-0.2-2.3-0.7-3.5c-1.2,0.4-2.2,1.2-3.5,1.5c-0.9,0.2-1.7,0.4-2.6,0.3c-0.5,0-1.1-0.1-1.2-0.6
			c-0.4-1.3-1-2.4-1.9-3.4c-0.6-0.6-0.2-1.3,0.2-1.7c0-1.2-1.9-0.9-1.5-2.2c0.3-0.9,1.3-1.3,1.5-2.3c-0.6-0.2-1.2,0.5-1.9,0
			c2-0.3,2.1-1.5,1.6-3.1c-0.5-1.8-0.1-3.6,1-5.2c0.2-0.3,0.4-0.6,0.5-1c1.7-4.4,6.1-6.5,10.6-5.1c0.2,0.1,0.3,0.1,0.6,0.2
			c0.4-1.5,1.6-2.1,2.8-2.8c0.8,0,1.7,0,2.5,0c1.9,0.7,3.6,1.7,4.5,3.7c1.1,2.4,0.5,4.3-1.8,6c1.5,4.7,0,8.6-3.3,11.9
			c-0.6,0.6-0.8,1.1-0.7,1.8c0.2,3.2,0.9,6.3,3.1,8.8c1.3,1.5,2.9,2,4.9,1.5c3.6-0.9,5.6,0,7.2,3.2c3.6,7,7.1,14,10.2,21.2
			c0.8,1.8,0.7,3.3-0.4,5c-1.6,2.3-3.6,4.2-5.7,5.9c-4.7,4-9.8,7.6-14.8,11.2c-0.8,0.6-1.1,1.1-0.7,2c0.7,2.1,0.8,4.2,0.5,6.4
			c-0.4,2.7-1.6,4.8-4.3,5.8c3-0.1,4.3-2.4,5-9c0.4,0,0.3,0.4,0.4,0.6c0.1,2.3,1,4.5,0.1,6.9c-0.7,1.9-0.6,2.3-2.7,2.4
			c-0.4,0.9-1.1,2-2,1.5c-1.2-0.6-2.2,0-3.2,0c-1.2,0.2-1.4-1.7-2.7-1.1c0.4,0.5,0.5,1.2,0.8,1.9c0.7-0.3,1.3-0.6,2-0.8
			c0.7,0.5,1.3,0.9,2,1.4c0.5-1,1.4-1,2.3-0.9c2.2,0.2,3.4-0.5,4-2.6c0.9-3,0.7-5.9-0.6-8.7c0.4,0,0.6,0.3,0.8,0.6
			c1.5,2.6,2.6,5.3,3,8.2c0.3,2-0.2,3.9-1.3,5.6c-0.3,0.5-0.6,1-1,1.6c0.8-0.3,0.9-1,1.7-1.5c-1.9,3.6-4.9,5.4-8.6,7
			c5.3-0.7,9.8-5.5,10.3-11c1.2,4,0.5,7.4-1.5,10.6c-1.2,1.8-2.9,3.1-4.5,4.4c-3.5,3-6.4,6.6-7.5,11.2c-0.1,0.4-0.2,0.7,0,1.3
			c0.8-3.3,2.5-5.8,4.4-8.3c2-2.4,4.8-3.9,6.8-6.3c-1.1,2.6-1.7,5.1-1.1,7.9c0.3,1.3,0.3,2.6,0.2,3.9c-0.1,1.4-0.4,2.7-1.6,3.6
			c0.9,2.2,1.2,4.4-0.7,6.2c2.2,2.6,2,5.3-0.5,6.4c1.5,2,1.6,4.1,0.5,6.4c-0.8,1.6-0.1,3.2,0.5,4.8c0.2,0.6,0.5,1.3,0.5,1.9
			c-4.7-8.8-4.4-18-1.7-27.3c-1.6,2.5-2.3,5.3-2.7,8.2c-0.8,5.5,0.1,10.8,2.1,16c0.8,2,1.5,4.2,0.8,6.5c1.7-0.2,3.6-1.1,4.8,0.8
			c0.7,1.1,0.4,2.2-0.5,3.4c1.5,1.2,1.6,3,2.3,4.6c-0.3,3.9-1.7,7.4-4.3,10.4c-1.1,1.3-0.9,2.8-0.2,4.3c-0.3-1.9,0.7-3.3,1.7-4.9
			c1.8-3,3.4-6.2,2.8-9.9c0.6,0.6,0.5,1.4,0.6,2.1c0.3,2.5,1,4.7,3.7,5.8c1.3,0.5,1.3,1.7,0.7,2.9c1,0.3,1.8,0.8,1.6,2
			c-0.2,1.1-1,1.5-2,1.6c-1.3,0.2-2.6,0.2-3.8,0.8c-0.2-0.3,0-0.4,0.1-0.5c1.9-1.9,2.3-4,0.7-6.3c-0.6-0.8-0.6-1.8-0.9-3.1
			c-0.5,1.5-0.7,2.6-0.1,3.9c1.1,2.1,0.6,3.4-1.6,4.8c1.1,0.7,0.6,1.3,0,2c-0.9,1-1.6,2.2-2,3.9c1.1-1.5,2.1-2.3,3.6-1.7
			c0.8,0.3,1.1,1.1,0.8,2.2c-0.3-1-0.6-1.7-1.6-1.6c-1,0.1-1.5,0.8-1.9,1.7c-1,2.5-0.1,5.9,1.8,7.2c0.3,0.3,0.5,0.5,0.8,0.8
			c0.2,0.4,0.4,0.7,0.6,1.1c0.8,1.4,0.8,1.9-0.3,3.7c2.7,2.2,2.7,5.6,0,8.1c2.4,1.7,1.9,3.7,0.7,5.9c-0.9,1-2,1.7-3.2,2.3
			c-0.8,0.4-1.7,1-1.2,2c0.6,1.2,0.8,2.4,0,3.6c1-0.5,1.6-1.2,2.1-2.2c0.8-1.9,1.3-3.9,2.5-5.6c0.9-0.9,1.9-1.8,2.8-2.7
			c0.5-0.6,1.1-1.2,0.7-2.2c-0.5,0.1-0.7,1-1.4,0.5c-0.4-0.3-0.4-0.7-0.2-1.2c0.2-0.7,0.7-1,1.4-1c1.3-0.1,2.3,1.5,1.9,3
			c-0.4,1.2-1.2,2-2.2,2.6c-2.1,1.2-3.3,3-4.1,5.2c0.2,0.2,0.3,0,0.4-0.1c0.1-0.1,0.3-0.3,0.4-0.4c1.3-2.7,4.2-4,5.8-6.4
			c0.5-0.7,1.4-0.8,2.1-0.9c0.6-0.1,1.2-0.2,1.7-0.5c0.1,0.1,0.2,0.2,0.2,0.3c-1.8,1.4-3.6,2.8-5.7,4.4c3.2-0.6,6.2-1.1,8.4-3.3
			c1.4-1.4,1.8-3.2,1.4-5.1c-0.6-2.8-4.2-4-6.2-2.1c-1,0.9-1.6,2.1-1.2,3.5c0.4,1.4,1.6,1.7,3.1,1.6c-1.8,1.2-4.1-0.1-4.3-2.3
			c-0.2-2.4,1.6-4.5,4.1-4.9c2.6-0.4,5.3,1.3,5.8,3.8c0.7,3.2-1,6.4-4.2,7.9c-1.1,0.5-2.3,0.8-3.5,1c3.2,1.4,7.9-0.3,9.4-3.1
			c1.9-3.5,1.1-7.6-2-9.5c-4.1-2.5-8.2-1.2-11,3.4c0.3-3,2.7-5.3,6-5.5c1.9-0.1,3.7,0.1,5.6,0.2c1.1,0,1.5,0.8,1.6,1.7
			c3.1,0.2,3.8,1.2,2.7,3.8c1.1,0.3,2,0.9,2.2,2.1c0.2,1.3-0.7,2.1-1.8,2.7c1,0.8,1.7,1.7,0.9,3c-0.8,1.3-1.9,1.5-3.3,1.2
			c-1-0.3-1.6,0.3-2.1,1c-2.1,2.9-4.1,3.3-7.2,1.6c-2.4-1.3-4.7-1.1-6.8,0.5c-0.8,0.7-1.6,1.4-2.4,2.2c-2.2,2.3-4.6,3.9-8,4.2
			c2.7,0.6,5.6-0.4,7.3-2.3c0.5-0.5,0.9-1.1,1.4-1.5c2.2-1.9,4-1.8,6.1,0.4C588.3,244.6,590.1,244.2,592,244.5L592,244.5z
			 M562.2,198.8c0-0.2-0.1-0.4-0.1-0.7c-0.9-4,0.8-8.3,4-10.4c4.1-2.6,9.8-0.6,10.7,3.8c0.4,2.1-0.5,4.4-2.1,5.5
			c-1.4,0.9-3.4,0.8-4.9-0.2c-1.9-1.4-1.8-4.2,0.3-5.2c-1.1,1.1-1.5,2.4-0.7,3.7c0.7,1.2,2.4,1.9,3.8,1.5c1.1-0.3,1.8-0.9,2.4-1.8
			c1.4-2.3,0.3-5.5-2.2-6.8c-2.7-1.4-6.3-0.5-8.4,2c-2.7,3.3-2.8,7.7-0.1,11.3c2.1,2.8,4.8,5,7.2,7.4c0.2,0.2,0.5,0.4,0.8,0.6
			c-0.2-0.6-0.5-1-0.8-1.3c-1.8-1.8-3.6-3.6-5.4-5.5c-1.3-1.4-2.4-3-2.8-4.9c-0.8-3.6,0.9-7.1,4.1-8.3c2-0.7,4.4-0.3,5.3,0.9
			c0.5,0.7,0.7,1.5,0.1,2.2c-0.5,0.5-1.1,0.6-1.7,0.2c-0.8-0.6-0.4-1.3,0.1-1.8c-2.6-0.9-4.6-0.2-5.9,2c-1.5,2.5-1.4,6.3,0.4,7.9
			c-0.2-1.1-0.4-2.1,0-3.2c0.3-0.8,0.7-1.4,1.6-1.3c0.8,0,1.4,0.5,1.6,1.3c0.1,0.3,0.1,0.5,0.2,0.8c1-0.3,2-0.7,2.7,0.4
			c0.6,1,0.1,1.9-0.5,2.7c-0.2,0.3-0.4,0.6-0.6,0.9c-0.7,1.3-0.8,2.8,0.1,4c1.7,2.1,3.5,4.1,4.6,6.6c0-0.8-0.3-1.4-0.6-2
			c-0.6-1.4-1.5-2.6-2.4-3.8c-0.6-0.8-1.1-1.7,0.2-2.3c-1.2-3-0.7-4.3,2.2-5.6c1.7-0.7,2.6-2.1,3.1-3.7c-1.9,1.9-3.1,2.6-4.5,2.3
			c2.5-1,3.8-2.7,3.9-5.4c0.1-2.6-0.9-4.6-3.3-5.9c-3.4-1.9-7.6-1.4-10.2,1.1C561.5,190.5,560.5,195.6,562.2,198.8z M572.2,146.3
			c-0.3,3-0.8,3.6-2.9,3.6c0,1.5,0.4,3.1-1.8,3.4c-0.1,0-0.3,0.2-0.2,0.3c0.1,1-0.7,1.7-0.9,3c0.8-1,1.1-1.9,2.1-2.2
			c-1.6,1.5-2.1,3.4-2,5.4c0,2.5,0.1,5.1-0.5,7.5c-0.3,1.4-1,2.6-0.9,4.1c0.1,2-0.3,3.8-2.7,4.3c-0.1,0-0.1,0.2-0.2,0.3
			c0.3,0.8,1.1,1.5,0.9,2.5c-0.2,1.1-1.1,1.5-2.1,2c1.3,0.6,1.6,1.6,1.2,2.8c-0.4,1.1-1.3,1.8-2.2,2.5c1.6,0.9,1.9,1.6,1.3,3.2
			c-0.3,0.8-0.7,1.6-1.1,2.4c-0.8,1.4-1,2.8-0.8,4.3c0.6,3.8,2.8,6.4,5.7,8.7c0.2,0.2,0.4,0.6,0.9,0.2c-1.4-1.3-2.9-2.5-3.9-4.1
			c-2.1-3.4-2.6-7-0.5-10.6c0.9-1.5,1.7-2.8,1.9-4.6c0.3-2.6,2.3-3.5,4.3-2.1c0.4-1.2,1.2-2,2.4-2.3c1.3-0.3,2.2,0.3,3,1.3
			c0.1-0.8,0-1.4-0.2-2.1c-0.6-2.4-1.8-4.5-3.1-6.6c-1.3-2.1-2.2-4.2-0.7-6.7c-1.1-0.2-1.5-0.9-2.2-1.9c0,1.4,0,2.3,0.2,3.3
			c0.5,1.7,0.9,3.4,1.4,5.2c0.3,1.1,0.2,2.2-0.7,3.1c1.3,1.3,1,2.5-0.8,3.5c-2.1,1.1-3.3,2.8-4,5c-0.1,0.3-0.1,0.6-0.5,0.8
			c0.1-0.8,0.2-1.5,0.4-2.1c0.7-1.9,1.3-3.7,0.8-5.7c-0.2-0.9,0.2-1.9,1.6-1.9c-0.5-0.9-0.3-1.7,0.3-2.3c1.2-1.2,1.4-2.6,1.2-4.1
			c-0.1-0.8-0.2-1.7-0.2-2.5c0.2-2.3,0-4.8,2.2-6.6c-1.3-1.1-1.4-2.4-0.9-3.8c0.5-1.4,1.7-2.3,2.8-3.3c-0.7-0.8-0.8-1.6-0.2-2.5
			c0.5-0.7,1.1-1.3,1.9-1.6c1.4-0.6,2.1-1.7,2.3-3.1c0.3-1.7,0.6-3.4,1.3-5.1C573.8,142.3,574.7,145.5,572.2,146.3z M557.6,189.6
			c0.2-1.7,0.3-3.3,0.5-5c0.6-4.5,2.4-8.6,4.7-12.5c2.7-4.5,3.4-9.4,3.1-14.9c-0.4,2.5-0.7,4.6-1.1,6.7c-0.8,3.8-2.5,7.2-4.2,10.7
			C558.3,179.3,557,184.2,557.6,189.6z M567.8,129.5c-0.4,0-0.8,0-1.3-0.1c-4-0.4-6.7-2.4-8-6.2c-0.5-1.3-0.6-2.7-0.9-4.1
			c-0.4-2.6-0.2-5.2-1-7.7c0.4,3,0,6,0.5,8.9C558.2,126.7,562,130.1,567.8,129.5z M556.9,91.7c0.4,3.2,0,6.4-0.5,9.6
			c-0.5,3.4-2,6.3-4.6,8.6C558.4,105.2,557.8,98.5,556.9,91.7z M554.9,101.9c1.5-2.3,1.1-4.9,0.9-7.4
			C555.8,97,555.6,99.5,554.9,101.9z M556.4,192.2c0.4,0.9,0.3,1.7,0,2.5c0.6,0.5,1.1,0.9,1.8,1.5
			C557.8,194.7,557.3,193.4,556.4,192.2z"/>
		<path fill="#E88495" d="M524,62.6c0.5-0.1,0.4-0.4,0.3-0.8c-0.2-0.9,0.3-1.4,1.1-0.9c1,0.6,2.1,0.7,3.3,1c-0.7-0.7-1.6-0.6-2.2-1
			c-0.4-0.2-0.8-0.6-0.6-1.1c0.1-0.5,0.5-0.7,1-0.5c0.3,0.1,0.5,0.1,0.6-0.3c0.1-0.6,0.5-0.8,1-0.7c0.7,0.1,0.7,0.6,0.7,1.2
			c0,0.4,0,0.8,0.3,1c0.8,0.7,0.9,1.6,0.8,2.9c0.5-1.3,0.6-2.2-0.2-3c-0.5-0.5-0.8-1.4-0.2-1.7c0.7-0.4,1.6-1.1,2.4-0.5
			c0.7,0.4,0.7,1.2,0.4,1.9c-0.5,1-1.1,1.9-1.6,2.9c-0.1,0.2-0.4,0.4-0.2,0.8c0.9-0.9,1.3-2,1.9-3.1c0.6-1.1,1.3-1.1,1.9-0.1
			c0.3,0.5,0.7,0.3,1.1,0.4c0.7,0.2,0.9,0.6,0.9,1.2c0,0.7-0.5,0.8-1.1,0.9c-1.1,0-2.2-0.2-3.5,0.5c1,0,1.7,0,2.5,0
			c0.7,0,1.4,0.3,1.8,1c0.4,0.7,0.4,1.1-0.6,1.3c-1.6,0.3-2.7-0.1-3.6-1.6c-0.7,1.4-1.9,1.9-3,2.5c0-1.1-1.1-2-0.3-3.2
			c-0.9-0.7-1.7-0.7-2.5,0.1c-0.7,0.8-1.5,0.7-2.3,0.2C524,63.5,524,63,524,62.6z"/>
		<path d="M549.3,236.3c1.7-1.6,3.6-1.4,5.6-0.5c2.3,1,2.4,1,3.5-1.3c0.9-1.7,1.4-1.9,3.7-1.2c0.1-2.8,1.5-4.3,4.5-4.4
			c-0.5-2,0.3-3.2,1.8-4.4c2.7-2.2,2.7-8.3,0.2-11.1c-0.3-0.3-0.6-0.6-0.8-1c0.7,0.2,1.2,0.8,1.6,1.3c2.2,3,2.4,6.3,1.5,9.8
			c-2,7.8-7.4,12.6-14.6,15.5c-0.4,0.2-0.8,0.3-1.1,0.5c3.2-0.6,5.9-2.1,8.5-4c2.6-1.9,4.7-4.3,6.4-7c2.4-3.9,2.9-8.1,1.5-12.4
			c-1.4-4.3-6.4-7-10.8-6c-3.1,0.7-5.4,3.4-5.5,6.6c-0.1,3.2,2.1,4.9,5,3.8c-0.7,1.7-3.2,2.1-4.8,0.5c-1.7-1.6-1.8-3.8-1.3-5.9
			c1-4.4,5.5-6.9,10.3-5.9c5.4,1.1,8.6,5,8.9,10.5c0.1,2.5,0,4.9,0.6,7.4c0.6,2.1-0.5,3.3-3.3,4.4c0.4,3.9-0.5,5.1-4.3,6.2
			c0.3,2.9-1.3,4.4-4.2,3.8c-0.9-0.2-1.7-0.5-2.5-0.8c-1-0.4-1.6-0.1-1.8,1c-0.8,3.3-2.8,4.5-6.2,3.9c-1.5-0.2-2.9-0.8-4.2-1.4
			c-3.4-1.5-5.6-1.5-8.9,0.2c-0.2-0.4,0.2-0.7,0.3-0.9c1-1.6,2.3-3.1,3.8-4.2c2.7-2.1,3.9-4.8,3.8-8.2c0-0.9,0-1.9,0-2.8
			c0.1-1.6,0.9-2.4,2.5-2.4c1.2,0,2.2-0.2,2.9-1.4c1-1.5,2.4-1.4,3.7,0.1c0.4-0.2,0.8-0.5,1.2-0.6c1.6-0.6,3.2,0.3,3.4,2.1
			c0,0.4-0.1,0.8,0.3,1.2c1.8,2,1.1,4.1-1.6,4.8c-0.4,0.1-0.7,0.1-1.2,0.2c0-0.6,0.6-0.6,0.8-0.9c1.5-1.6,0.9-3.9-1.1-4.5
			c-2.1-0.6-4.1-0.2-5.7,1.4c-1.1,1.2-1.8,2.6-2.3,4.1c-0.5,1.3-0.9,2.5-1.4,3.9c1.4-1.3,2.2-2.8,2.9-4.4c0.4-0.8,0.7-1.6,1.1-2.3
			c0.7-1.1,2.1-1.4,3.2-0.8c0.9,0.5,1.3,1.5,0.8,2.3c-0.3,0.6-0.8,1.1-1.6,0.8c-0.9-0.4-0.4-1,0-1.6c-1.1-0.3-1.8,0.3-2.2,1.1
			c-0.8,1.7-1.9,3.2-3.1,4.7c-1.8,1.8-4.5,2.5-6.1,4.5C546,240.4,548.2,239,549.3,236.3z"/>
		<path d="M546.1,144.9c0.4,2,0.6,4.1,1.1,6.1c0.6,2,1.2,4,3,5.4c0.9,0.7,0.9,1.7,0.4,2.6c2.2,1,2.4,1.8,1.1,4.4
			c1.2,1,1.7,2.1,0.7,3.4c-1.8,2.4-1.2,5-0.9,7.6c0.7-1.2,0.8-1.8,0.8-4.4c0-0.9-0.1-1.7,1.1-2c-0.2-1.1-0.3-2.2-0.1-3.2
			c0.3-1.2,1.2-1.5,2.4-1.6c-0.5-1.6-3.6-2.2-1.5-4.5c-2.2-1.1-2.4-1.6-1.6-3.6c-1.8-0.3-2.5-1.4-2.6-3.1c0-0.9-0.6-1.6-1.1-2.4
			c-2.2-3-2.8-6.4-2.5-10c0.1,1,0.2,2.1,0.4,3.1c0.5,2.6,1.8,4.9,3.5,6.9c1.5,1.8,3,3.6,4.4,5.5c2.9,3.7,3.1,7.8,1.5,12.1
			c-0.2,0.4-0.5,0.8-0.4,1.3c2.3-2.6,2.8-7.6,1.2-11.2c-1.1-2.6-3-4.7-4.8-6.7c-2.4-2.6-4.5-5.4-5-9.1c-0.2-1.5-0.3-2.9-0.1-4.4
			c0.2,1.2,0.3,2.4,0.5,3.6c0.6,4,2.6,6.9,6.5,8.4c1.7,0.7,2.9,1.8,2.4,3.9c2.7,0.6,3.1,1.4,2.1,4.1c2,0.8,2.4,2,1.3,3.9
			c-0.7,1.1-1.7,2.1-0.8,3.6c0.4,0.7-0.3,1.4-0.7,2c-1.1,1.5-2.1,3.1-3.2,4.6c-1.5,2.3-2.7,4.7-3.5,7.4c-0.4-0.2-0.4-0.5-0.4-0.8
			c-0.1-5.3-1.6-10.4-2.9-15.5C546.7,156.7,546,150.8,546.1,144.9z"/>
		<path d="M548.6,249.1c-1.9,2-4.1,1.9-5.5-0.5c-1.4-2.3-3.1-3.2-5.9-2c1.7-2.2,3.7-2.7,5.9-2.6c1.7,0.1,3.3,0.7,4.8,1.5
			c3,1.4,6,2.4,9.4,1.8c1.2-0.2,2.2-0.7,3-1.8c-0.4-0.5-1-0.9-0.4-1.6c0.3-0.4,0.7-0.4,1.1-0.3c0.6,0.2,0.8,0.6,0.7,1.2
			c0,0.3-0.1,0.7-0.2,0.9c-1.2,2.3-3,4-5.5,4.6C553.3,250.9,550.8,250.5,548.6,249.1z"/>
		<path d="M546.1,120.6L546.1,120.6c0.8-0.8,2-1.2,2.1-2.7c0.1-0.7,1.1-0.9,1.8-1.2c0.8-0.3,1.7-0.6,2.4-1c1.4-0.8,1.8-2,1.4-3.7
			c0.8,0.6,1,1.5,0.6,2.7c-0.5,1.3-1.3,2.5-2.3,3.5c-3.9,3.6-5.6,8-5.4,13.3c0.2,3.8-1.2,7.5-1.2,11.4c-0.3-1.4-0.5-2.8-0.5-4.3
			c0-1.2-0.2-2.3-0.5-3.5c-0.4-1.5-0.5-3-0.9-4.6c-0.3-1,0.5-1.8,1.2-2.5c-1.2-2-0.9-3.1,0.9-4.5
			C545.5,122.5,545.5,121.5,546.1,120.6z"/>
		<path d="M564.8,219c2.5-0.7,3.3,0,3.1,2.4c0,0.1,0,0.3,0,0.4c0.3,2.4-0.2,2.9-2.6,2.4c0.4,1.4,0,2.3-1.3,2.7
			c-0.6,0.2-0.5,0.7-0.6,1.2c-0.3,1.3-0.9,2.4-2.1,3c-0.2-0.3,0.1-0.4,0.2-0.5c1.9-2.2,1.5-4.7-0.9-6.3c-1-0.6-2.1-0.9-3.2-1.9
			c1.1-0.1,2.1,0,2.9-0.3c1.3-0.5,2.3-1.2,2.4-2.6c0.1-1.1,0.1-2.1-1.1-2.6c-1.2-0.5-2.3-0.3-3.2,0.7c-0.2,0.2-0.3,0.4-0.7,0.9
			c0.5-1.7,1.4-2.3,2.7-2.5c1.4-0.2,2.5,0.4,3.3,1.6C564.2,218.1,564.1,218.8,564.8,219L564.8,219z"/>
		<path d="M564.8,219c0.1-1.4-0.6-2.4-1.8-3c-0.5-0.3-1.1-0.6-1.6-0.9c-1.4-0.9-1.8-2.1-1.1-3.3c0.7-1.2,2.4-1.5,3.6-0.6
			c0.9,0.8,1.8,1.4,3,1.6c1.4,0.3,1.8,2,1,3.5c-0.5,0.8-1.2,1.4-2,1.9C565.5,218.4,564.9,218.5,564.8,219L564.8,219z"/>
		<path d="M552.4,204.6c-1.4-0.5-1.2-1.4-0.6-2.4c0.3-0.6,0.3-1.2,0.1-1.9c-0.2-0.6-0.6-1.3-0.1-2.1c0.5,0.9,1.2,1.7,1.5,2.6
			c0.5,1.8,1.4,3,3.5,2.9c-0.4,0.7-1,0.8-1.5,1c-0.6,0.3-1.1,0.6-1.2,1.3c-0.2,0.8-0.4,1.5-1.3,1.5c-0.6,0-1-0.1-1.3-0.7
			c-0.4-0.9,0.2-1.4,0.7-1.9C552.3,205,552.3,204.8,552.4,204.6z"/>
		<path d="M583,221.6c-1.3-1.7-1-2.6,1.3-4.5c-1-1.1-1-1.3,0.2-3.8c-1.2-0.1-1.8-1-2.4-1.9c-1.3-2.2-1.5-2.3-3.9-1.6
			c2.4-3.5,8.2-3.5,10.3,0.1c0.5,0.8,0.9,1.7,0.3,2.6c-0.4,0.6,0,0.9,0.2,1.3c0.8,2,0.5,2.9-1.3,3.8c1.1,3.2,0.9,3.7-1.8,4.8
			c1,1.3,0.3,2.2-0.6,3.1c-1.5,1.6-2.1,3.5-1.7,5.7c-1-1.8-0.7-3.6-0.3-5.5c0.3-1.7,1-3.3,1.9-4.8c1.1-1.9,1.9-4,2-6.2
			c0.1-2-0.4-3.8-2.3-4.9c2.5,3.4,1.5,6.7-0.1,10c-1.1,2.2-2.1,4.5-2.4,7C582.4,225.1,581,223.2,583,221.6z"/>
		<path d="M592,244.5c2,0,3.6-0.7,5.1-2c0.7-0.7,1.6-0.9,2.6-0.7c0.7,0.2,1.3,0.2,1.6-0.7c0.3-1.2,1.2-1.3,2.2-1.2
			c0.6,0.1,1.3,0.3,1.9,0c1.1-0.4,1.6-1.1,1.5-2.2c-0.1-0.9-0.6-1.5-1.5-1.8c-1-0.3-1.1,0.5-1.3,1.1c-0.6,0-0.8-0.2-0.8-0.7
			c0-0.5,0.4-0.8,0.8-1c1.7-0.8,3.9,0.5,4.3,2.6c0.4,2.6-1.9,6.9-5.7,5.9c-0.5-0.1-0.8,0-1.1,0.4c-0.8,1-1.9,1-2.9,0.6
			c-0.9-0.4-1.8-0.5-2.7-0.1C594.6,245.1,593.3,245,592,244.5C592,244.5,592,244.5,592,244.5z"/>
		<path d="M584.3,230.1c-0.1-1.8,0.8-3.2,1.9-4.5c1.7-2,3-4.3,3.3-7c0.1-0.9,0.6-1.8,1.7-1.8c1,0,1.5,0.8,1.6,1.6
			c0.2,1.5,1,2.5,2.2,3.2c0.7,0.4,1.1,0.9,0.9,1.7c-0.2,0.8-0.9,1.2-1.7,1.3c-0.4,0-0.7,0-1.1,0C588.4,224.3,586,225.8,584.3,230.1z
			"/>
		<path d="M580.2,220.8c-0.3-0.3-0.5-0.5-0.8-0.8c-0.6-1.1-1.4-2.1-1.6-3.4c-0.2-0.8-0.1-1.5,0.5-2c0.6-0.5,1.2-0.3,1.7,0.3
			c0.2,0.2,0.4,0.2,0.6,0c0.5-0.4,1-0.5,1.5,0c0.5,0.6,0.4,1.2,0.1,1.8c-0.4,0.7-0.8,1.3-1.2,1.9c-0.4,0.6-0.4,1.3-0.4,2
			C580.6,221.1,580.4,220.8,580.2,220.8z"/>
	</g>
</g>
</svg>
