<?xml version="1.0" encoding="UTF-8" standalone="no"?>
<svg width="39px" height="39px" viewBox="0 0 39 39" version="1.1" xmlns="http://www.w3.org/2000/svg" xmlns:xlink="http://www.w3.org/1999/xlink">
    <!-- Generator: Sketch 3.6.1 (26313) - http://www.bohemiancoding.com/sketch -->
    <title>lnr-phone-handset</title>
    <desc>Created with Sketch.</desc>
    <defs></defs>
    <g id="Pages" stroke="none" stroke-width="1" fill="none" fill-rule="evenodd">
        <g id="Desktop-/-Contact-Page" transform="translate(-803.000000, -1105.000000)" fill="#E88495">
            <g id="Contact-Info-/-Form" transform="translate(341.000000, 1063.000000)">
                <g id="Contact-Info" transform="translate(462.000000, 41.000000)">
                    <g id="Phone">
                        <g id="lnr-phone-handset" transform="translate(0.000000, 1.000000)">
                            <path d="M31.2,38.0952381 C27.74655,38.0952381 24.07275,37.1390476 20.28,35.2533333 C16.78365,33.5142857 13.3302,31.0247619 10.2921,28.0533333 C7.254,25.0819048 4.70925,21.7047619 2.93085,18.287619 C1.00425,14.5809524 0.02535,10.992381 0.02535,7.61904762 C0.02535,5.43238095 2.11185,3.32 3.0069,2.51428571 C4.29585,1.35428571 6.32385,0 7.79805,0 C8.53125,0 9.38925,0.468571429 10.5027,1.47428571 C11.33145,2.2247619 12.2655,3.24190476 13.19955,4.4152381 C13.7631,5.12380952 16.57305,8.74095238 16.57305,10.4761905 C16.57305,11.8990476 14.9253,12.8895238 13.182,13.9352381 C12.5073,14.3390476 11.81115,14.7580952 11.30805,15.152381 C10.76985,15.5733333 10.6743,15.7961905 10.6587,15.8457143 C12.50925,20.352381 18.1662,25.8780952 22.77795,27.6838095 C22.8189,27.6704762 23.04705,27.5828571 23.4858,27.0495238 C23.88945,26.5580952 24.31845,25.8761905 24.73185,25.2190476 C25.80435,23.5161905 26.8164,21.9066667 28.27305,21.9066667 C30.0495,21.9066667 33.75255,24.6514286 34.47795,25.2019048 C35.67915,26.1142857 36.72045,27.0266667 37.48875,27.8361905 C38.51835,28.9219048 38.99805,29.7619048 38.99805,30.4780952 C38.99805,31.9180952 37.6116,33.9047619 36.426,35.1695238 C35.5992,36.0495238 33.43665,38.0971429 31.19805,38.0971429 L31.2,38.0952381 Z M7.7883,1.9047619 C7.2657,1.91428571 5.85975,2.53904762 4.33095,3.91428571 C2.88015,5.22095238 1.9773,6.64 1.9773,7.61904762 C1.9773,20.4361905 18.0921,36.1904762 31.2,36.1904762 C32.20035,36.1904762 33.6531,35.3047619 34.9908,33.88 C36.40065,32.3790476 37.04025,31 37.05,30.487619 C36.9876,30.1257143 35.9619,28.7180952 33.15585,26.607619 C30.7437,24.7942857 28.78785,23.8209524 28.28475,23.8095238 C28.24965,23.8190476 28.03125,23.9009524 27.5886,24.4495238 C27.20445,24.927619 26.793,25.5809524 26.39325,26.2133333 C25.30125,27.9485714 24.2697,29.5885714 22.77015,29.5885714 C22.52835,29.5885714 22.29045,29.5428571 22.0623,29.4533333 C16.94355,27.4533333 10.89075,21.5409524 8.84325,16.5409524 C8.59755,15.9409524 8.55855,15 9.76755,13.9295238 C10.41105,13.36 11.30025,12.8266667 12.16215,12.3085714 C12.80955,11.92 13.48035,11.5180952 13.96785,11.1409524 C14.52945,10.7085714 14.6133,10.4952381 14.62305,10.4609524 C14.6094,9.96952381 13.6149,8.05904762 11.7585,5.70285714 C9.5979,2.96190476 8.15685,1.96190476 7.78635,1.89904762 L7.7883,1.9047619 Z" id="Shape"></path>
                        </g>
                    </g>
                </g>
            </g>
        </g>
    </g>
</svg>