<?xml version="1.0" encoding="UTF-8" standalone="no"?>
<svg width="46px" height="40px" viewBox="0 0 46 40" version="1.1" xmlns="http://www.w3.org/2000/svg" xmlns:xlink="http://www.w3.org/1999/xlink">
    <!-- Generator: Sketch 3.6.1 (26313) - http://www.bohemiancoding.com/sketch -->
    <title>lnr-store</title>
    <desc>Created with Sketch.</desc>
    <defs></defs>
    <g id="Pages" stroke="none" stroke-width="1" fill="none" fill-rule="evenodd">
        <g id="Desktop-/-Contact-Page" transform="translate(-803.000000, -1195.000000)" fill="#E88495">
            <g id="Contact-Info-/-Form" transform="translate(341.000000, 1063.000000)">
                <g id="Contact-Info" transform="translate(462.000000, 41.000000)">
                    <g id="Location" transform="translate(0.000000, 91.000000)">
                        <g id="lnr-store">
                            <g id="Group">
                                <path d="M45.3333333,14.6666667 L45.3333333,12 C45.3333333,11.792 45.2853333,11.5893333 45.192,11.4026667 L39.8586667,0.736 C39.632,0.285333333 39.1706667,0 38.6666667,0 L6.66666667,0 C6.16266667,0 5.69866667,0.285333333 5.47466667,0.736 L0.141333333,11.4026667 C0.048,11.5866667 -1.11022302e-16,11.792 -1.11022302e-16,12 L-1.11022302e-16,14.6666667 C-1.11022302e-16,16.8426667 1.048,18.7786667 2.66666667,19.9973333 L2.66666667,37.3333333 L1.33333333,37.3333333 C0.597333333,37.3333333 1.85037171e-16,37.9306667 1.85037171e-16,38.6666667 C1.85037171e-16,39.4026667 0.597333333,40 1.33333333,40 L44,40 C44.736,40 45.3333333,39.4026667 45.3333333,38.6666667 C45.3333333,37.9306667 44.736,37.3333333 44,37.3333333 L42.6666667,37.3333333 L42.6666667,19.9973333 C44.2853333,18.7786667 45.3333333,16.8453333 45.3333333,14.6666667 L45.3333333,14.6666667 Z M28,18.6666667 C25.7946667,18.6666667 24,16.872 24,14.6666667 L24,13.3333333 L32,13.3333333 L32,14.6666667 C32,16.872 30.2053333,18.6666667 28,18.6666667 L28,18.6666667 Z M2.66666667,14.6666667 L2.66666667,13.3333333 L10.6666667,13.3333333 L10.6666667,14.6666667 C10.6666667,16.872 8.872,18.6666667 6.66666667,18.6666667 C4.46133333,18.6666667 2.66666667,16.872 2.66666667,14.6666667 L2.66666667,14.6666667 Z M21.3333333,2.66666667 L21.3333333,10.6666667 L13.7066667,10.6666667 L15.7066667,2.66666667 L21.3333333,2.66666667 L21.3333333,2.66666667 Z M29.6266667,2.66666667 L31.6266667,10.6666667 L24,10.6666667 L24,2.66666667 L29.6266667,2.66666667 L29.6266667,2.66666667 Z M13.3333333,13.3333333 L21.3333333,13.3333333 L21.3333333,14.6666667 C21.3333333,16.872 19.5386667,18.6666667 17.3333333,18.6666667 C15.128,18.6666667 13.3333333,16.872 13.3333333,14.6666667 L13.3333333,13.3333333 L13.3333333,13.3333333 Z M34.6666667,13.3333333 L42.6666667,13.3333333 L42.6666667,14.6666667 C42.6666667,16.872 40.872,18.6666667 38.6666667,18.6666667 C36.4613333,18.6666667 34.6666667,16.872 34.6666667,14.6666667 L34.6666667,13.3333333 L34.6666667,13.3333333 Z M41.8426667,10.6666667 L34.3733333,10.6666667 L32.3733333,2.66666667 L37.8426667,2.66666667 L41.8426667,10.6666667 L41.8426667,10.6666667 Z M7.49066667,2.66666667 L12.96,2.66666667 L10.96,10.6666667 L3.49066667,10.6666667 L7.49066667,2.66666667 L7.49066667,2.66666667 Z M5.33333333,21.2 C5.76533333,21.288 6.21066667,21.3333333 6.66666667,21.3333333 C8.84533333,21.3333333 10.784,20.2826667 12,18.6613333 C13.216,20.2826667 15.1546667,21.3333333 17.3333333,21.3333333 C19.512,21.3333333 21.4506667,20.2826667 22.6666667,18.6613333 C23.6293333,19.9413333 25.04,20.8666667 26.6666667,21.1973333 L26.6666667,37.3306667 L5.33333333,37.3306667 L5.33333333,21.1973333 L5.33333333,21.2 Z M40,37.3333333 L29.3333333,37.3333333 L29.3333333,21.2 C30.96,20.8693333 32.3706667,19.944 33.3333333,18.664 C34.5493333,20.2853333 36.488,21.336 38.6666667,21.336 C39.1226667,21.336 39.568,21.2906667 40,21.2026667 L40,37.336 L40,37.3333333 Z" id="Shape"></path>
                                <path d="M34.6666667,28 C34.6666667,28.736 34.0693333,29.3333333 33.3333333,29.3333333 C32.5973333,29.3333333 32,28.736 32,28 C32,27.264 32.5973333,26.6666667 33.3333333,26.6666667 C34.0693333,26.6666667 34.6666667,27.264 34.6666667,28 L34.6666667,28 Z" id="Shape"></path>
                                <path d="M9.33333333,29.3333333 C8.992,29.3333333 8.65066667,29.2026667 8.38933333,28.944 C7.86933333,28.424 7.86933333,27.5786667 8.38933333,27.0586667 L11.056,24.392 C11.576,23.872 12.4213333,23.872 12.9413333,24.392 C13.4613333,24.912 13.4613333,25.7573333 12.9413333,26.2773333 L10.2746667,28.944 C10.0133333,29.2053333 9.672,29.3333333 9.33066667,29.3333333 L9.33333333,29.3333333 Z" id="Shape"></path>
                                <path d="M12,34.6666667 C11.6586667,34.6666667 11.3173333,34.536 11.056,34.2773333 C10.536,33.7573333 10.536,32.912 11.056,32.392 L19.056,24.392 C19.576,23.872 20.4213333,23.872 20.9413333,24.392 C21.4613333,24.912 21.4613333,25.7573333 20.9413333,26.2773333 L12.9413333,34.2773333 C12.68,34.5386667 12.3386667,34.6666667 11.9973333,34.6666667 L12,34.6666667 Z" id="Shape"></path>
                                <path d="M20,34.6666667 C19.6586667,34.6666667 19.3173333,34.536 19.056,34.2773333 C18.536,33.7573333 18.536,32.912 19.056,32.392 L21.7226667,29.7253333 C22.2426667,29.2053333 23.088,29.2053333 23.608,29.7253333 C24.128,30.2453333 24.128,31.0906667 23.608,31.6106667 L20.9413333,34.2773333 C20.68,34.5386667 20.3386667,34.6666667 19.9973333,34.6666667 L20,34.6666667 Z" id="Shape"></path>
                            </g>
                        </g>
                    </g>
                </g>
            </g>
        </g>
    </g>
</svg>